<?xml version="1.0"?>
<svg xmlns="http://www.w3.org/2000/svg" xmlns:xlink="http://www.w3.org/1999/xlink" xmlns:svgjs="http://svgjs.com/svgjs" version="1.1" width="512" height="512" x="0" y="0" viewBox="0 0 512 512" style="enable-background:new 0 0 512 512" xml:space="preserve" class=""><g><g xmlns="http://www.w3.org/2000/svg"><path d="m205 130c-41.355 0-75 33.645-75 75s33.645 75 75 75 75-33.645 75-75-33.645-75-75-75zm0 105c-16.569 0-30-13.432-30-30 0-16.569 13.431-30 30-30s30 13.431 30 30c0 16.568-13.431 30-30 30z" fill="#8e8e8e" data-original="#000000" style="" class=""/><path d="m506.231 250.177c-3.641-2.843-8.389-3.85-12.869-2.729l-160 40c-6.677 1.669-11.362 7.669-11.362 14.552v122.58c-4.695-1.665-9.742-2.58-15-2.58-24.813 0-45 20.187-45 45s20.187 45 45 45 45-20.187 45-45v-108.75l130-32.5v78.83c-4.695-1.665-9.741-2.58-15-2.58-24.813 0-45 20.187-45 45s20.187 45 45 45 45-20.187 45-45v-185c0-4.619-2.128-8.98-5.769-11.823z" fill="#8e8e8e" data-original="#000000" style="" class=""/><path d="m326.088 258.344 81.257-20.314c1.759-10.854 2.655-21.881 2.655-33.03 0-113.037-91.963-205-205-205-113.038 0-205 91.963-205 205s91.962 205 205 205c30.511 0 60.08-6.7 87-19.339v-88.661c0-20.688 14.018-38.641 34.088-43.656zm-121.088 51.656c-57.897 0-105-47.103-105-105s47.103-105 105-105 105 47.103 105 105-47.103 105-105 105z" fill="#8e8e8e" data-original="#000000" style="" class=""/></g></g></svg>
