<?xml version="1.0" standalone="no"?><!DOCTYPE svg PUBLIC "-//W3C//DTD SVG 1.1//EN" "http://www.w3.org/Graphics/SVG/1.1/DTD/svg11.dtd"><svg t="1621150404144" class="icon" viewBox="0 0 1024 1024" version="1.1" xmlns="http://www.w3.org/2000/svg" p-id="5081" xmlns:xlink="http://www.w3.org/1999/xlink" width="200" height="200"><defs><style type="text/css"></style></defs><path d="M512 67C266.2 67 67 266.2 67 512s199.2 445 445 445 445-199.2 445-445S757.8 67 512 67z m279.3 724.3c-36.3 36.3-78.5 64.8-125.6 84.7-48.7 20.6-100.4 31-153.7 31s-105.1-10.4-153.7-31c-47-19.9-89.3-48.4-125.6-84.7-36.3-36.3-64.8-78.5-84.7-125.6-20.6-48.7-31-100.4-31-153.7s10.4-105.1 31-153.7c19.9-47 48.4-89.3 84.7-125.6 36.3-36.3 78.5-64.8 125.6-84.7 48.7-20.6 100.4-31 153.7-31s105.1 10.4 153.7 31c47 19.9 89.3 48.4 125.6 84.7 36.3 36.3 64.8 78.5 84.7 125.6 20.6 48.7 31 100.4 31 153.7s-10.4 105.1-31 153.7c-19.9 47.1-48.4 89.3-84.7 125.6zM381.1 332h50v360h-50V332z m211.8 0h50v360h-50V332z" fill="" p-id="5082"></path></svg>