<?xml version="1.0" encoding="UTF-8" standalone="no"?>
<svg
   t="1621150404144"
   class="icon"
   viewBox="0 0 1024 1024"
   version="1.1"
   p-id="5081"
   width="200"
   height="200"
   id="svg1921"
   sodipodi:docname="pause-light.svg"
   inkscape:version="1.1 (c4e8f9e, 2021-05-24)"
   xmlns:inkscape="http://www.inkscape.org/namespaces/inkscape"
   xmlns:sodipodi="http://sodipodi.sourceforge.net/DTD/sodipodi-0.dtd"
   xmlns="http://www.w3.org/2000/svg"
   xmlns:svg="http://www.w3.org/2000/svg">
  <sodipodi:namedview
     id="namedview1923"
     pagecolor="#ffffff"
     bordercolor="#666666"
     borderopacity="1.0"
     inkscape:pageshadow="2"
     inkscape:pageopacity="0.0"
     inkscape:pagecheckerboard="0"
     showgrid="false"
     inkscape:zoom="3.855"
     inkscape:cx="100.1297"
     inkscape:cy="98.832685"
     inkscape:window-width="1870"
     inkscape:window-height="1000"
     inkscape:window-x="50"
     inkscape:window-y="30"
     inkscape:window-maximized="1"
     inkscape:current-layer="svg1921" />
  <defs
     id="defs1917">
    <style
       type="text/css"
       id="style1915" />
  </defs>
  <path
     d="M512 67C266.2 67 67 266.2 67 512s199.2 445 445 445 445-199.2 445-445S757.8 67 512 67z m279.3 724.3c-36.3 36.3-78.5 64.8-125.6 84.7-48.7 20.6-100.4 31-153.7 31s-105.1-10.4-153.7-31c-47-19.9-89.3-48.4-125.6-84.7-36.3-36.3-64.8-78.5-84.7-125.6-20.6-48.7-31-100.4-31-153.7s10.4-105.1 31-153.7c19.9-47 48.4-89.3 84.7-125.6 36.3-36.3 78.5-64.8 125.6-84.7 48.7-20.6 100.4-31 153.7-31s105.1 10.4 153.7 31c47 19.9 89.3 48.4 125.6 84.7 36.3 36.3 64.8 78.5 84.7 125.6 20.6 48.7 31 100.4 31 153.7s-10.4 105.1-31 153.7c-19.9 47.1-48.4 89.3-84.7 125.6zM381.1 332h50v360h-50V332z m211.8 0h50v360h-50V332z"
     fill=""
     p-id="5082"
     id="path1919" />
  <path
     style="fill:#ffffff;stroke-width:0.259403"
     d="M 94.033722,186.61021 C 82.260791,185.55477 72.413873,182.95371 62.743377,178.34488 47.544934,171.1015 34.429148,159.21761 25.69461,144.7759 17.495483,131.21944 13.299289,116.05173 13.307226,100 c 0.0029,-5.825211 0.269144,-9.262228 1.110441,-14.333896 4.596089,-27.707048 22.88527,-51.929881 48.32571,-64.004266 33.211334,-15.7625589 72.314093,-9.062022 98.368633,16.85617 12.68486,12.618472 21.11343,28.549154 24.22548,45.788088 1.31405,7.279043 1.75333,17.317914 1.04999,23.994814 -2.17599,20.65666 -10.78131,38.76278 -25.27547,53.18108 -13.73425,13.66238 -31.12317,22.15456 -50.47647,24.65107 -3.08886,0.39845 -13.986087,0.71165 -16.601818,0.47715 z m 13.526338,-9.7037 c 17.5426,-1.73698 33.51918,-9.1476 46.09832,-21.38239 5.34819,-5.20178 9.11973,-9.91268 12.6778,-15.8354 15.49767,-25.79725 14.43138,-58.842152 -2.69709,-83.5843 C 159.66576,50.364934 152.98726,43.262389 147.73022,39.185455 136.16147,30.213657 123.11709,24.877546 108.6916,23.215784 104.31289,22.711373 95.678617,22.711985 91.308397,23.217016 76.847663,24.888125 63.850125,30.204666 52.26978,39.185455 47.012744,43.262389 40.334239,50.364934 36.360913,56.10442 c -17.126512,24.739315 -18.199478,57.47111 -2.738099,83.5282 3.386329,5.70699 7.356084,10.66826 12.713064,15.88839 5.941795,5.78999 11.657326,9.84026 19.163473,13.58004 8.130947,4.05107 16.461419,6.59684 24.643321,7.53093 1.355382,0.15474 2.814526,0.32217 3.242542,0.37207 1.836719,0.21412 11.713676,0.14615 14.174846,-0.0975 z"
     id="path1999"
     transform="scale(5.12)" />
  <path
     style="fill:#ffffff;stroke-width:0.259403"
     d="M 74.57847,100 V 64.850843 h 4.798962 4.798962 V 100 135.14916 H 79.377432 74.57847 Z"
     id="path2038"
     transform="scale(5.12)" />
  <path
     style="fill:#ffffff;stroke-width:0.259403"
     d="M 115.82361,100 V 64.850843 h 4.79896 4.79896 V 100 135.14916 h -4.79896 -4.79896 z"
     id="path2077"
     transform="scale(5.12)" />
</svg>
